<mxfile host="65bd71144e">
    <diagram id="oBI2F2C8D4dN3SgJy1Xo" name="第 1 页">
        <mxGraphModel dx="597" dy="518" grid="1" gridSize="10" guides="1" tooltips="1" connect="1" arrows="1" fold="1" page="1" pageScale="1" pageWidth="827" pageHeight="1169" math="0" shadow="0">
            <root>
                <mxCell id="0"/>
                <mxCell id="1" parent="0"/>
                <mxCell id="2" value="数据" style="text;html=1;align=center;verticalAlign=middle;resizable=0;points=[];autosize=1;strokeColor=none;fillColor=none;" parent="1" vertex="1">
                    <mxGeometry x="180" y="70" width="40" height="20" as="geometry"/>
                </mxCell>
                <mxCell id="3" value="视图" style="text;html=1;align=center;verticalAlign=middle;resizable=0;points=[];autosize=1;strokeColor=none;fillColor=none;" parent="1" vertex="1">
                    <mxGeometry x="380" y="70" width="40" height="20" as="geometry"/>
                </mxCell>
                <mxCell id="4" value="" style="endArrow=classic;startArrow=classic;html=1;exitX=1.071;exitY=0.458;exitDx=0;exitDy=0;exitPerimeter=0;entryX=-0.004;entryY=0.458;entryDx=0;entryDy=0;entryPerimeter=0;" parent="1" source="2" target="3" edge="1">
                    <mxGeometry width="50" height="50" relative="1" as="geometry">
                        <mxPoint x="260" y="180" as="sourcePoint"/>
                        <mxPoint x="310" y="130" as="targetPoint"/>
                    </mxGeometry>
                </mxCell>
                <mxCell id="24" style="edgeStyle=none;html=1;exitX=1;exitY=0.5;exitDx=0;exitDy=0;entryX=0;entryY=0.5;entryDx=0;entryDy=0;" parent="1" source="5" target="9" edge="1">
                    <mxGeometry relative="1" as="geometry"/>
                </mxCell>
                <mxCell id="5" value="" style="rounded=1;whiteSpace=wrap;html=1;" parent="1" vertex="1">
                    <mxGeometry x="90" y="160" width="180" height="220" as="geometry"/>
                </mxCell>
                <mxCell id="6" value="" style="endArrow=none;html=1;exitX=0;exitY=0.25;exitDx=0;exitDy=0;entryX=1;entryY=0.25;entryDx=0;entryDy=0;" parent="1" source="5" target="5" edge="1">
                    <mxGeometry width="50" height="50" relative="1" as="geometry">
                        <mxPoint x="310" y="240" as="sourcePoint"/>
                        <mxPoint x="360" y="190" as="targetPoint"/>
                    </mxGeometry>
                </mxCell>
                <mxCell id="7" value="Subject" style="text;html=1;align=center;verticalAlign=middle;resizable=0;points=[];autosize=1;strokeColor=none;fillColor=none;" parent="1" vertex="1">
                    <mxGeometry x="150" y="180" width="60" height="20" as="geometry"/>
                </mxCell>
                <mxCell id="8" value="被观察者" style="text;html=1;align=center;verticalAlign=middle;resizable=0;points=[];autosize=1;strokeColor=none;fillColor=none;" parent="1" vertex="1">
                    <mxGeometry x="150" y="130" width="60" height="20" as="geometry"/>
                </mxCell>
                <mxCell id="9" value="" style="rounded=1;whiteSpace=wrap;html=1;" parent="1" vertex="1">
                    <mxGeometry x="340" y="160" width="180" height="220" as="geometry"/>
                </mxCell>
                <mxCell id="10" value="" style="endArrow=none;html=1;exitX=0;exitY=0.25;exitDx=0;exitDy=0;entryX=1;entryY=0.25;entryDx=0;entryDy=0;" parent="1" source="9" target="9" edge="1">
                    <mxGeometry width="50" height="50" relative="1" as="geometry">
                        <mxPoint x="560" y="240" as="sourcePoint"/>
                        <mxPoint x="610" y="190" as="targetPoint"/>
                    </mxGeometry>
                </mxCell>
                <mxCell id="11" value="Observer" style="text;html=1;align=center;verticalAlign=middle;resizable=0;points=[];autosize=1;strokeColor=none;fillColor=none;" parent="1" vertex="1">
                    <mxGeometry x="400" y="180" width="60" height="20" as="geometry"/>
                </mxCell>
                <mxCell id="12" value="观察者" style="text;html=1;align=center;verticalAlign=middle;resizable=0;points=[];autosize=1;strokeColor=none;fillColor=none;" parent="1" vertex="1">
                    <mxGeometry x="405" y="130" width="50" height="20" as="geometry"/>
                </mxCell>
                <mxCell id="13" value="" style="rounded=1;whiteSpace=wrap;html=1;" parent="1" vertex="1">
                    <mxGeometry x="350" y="170" width="180" height="220" as="geometry"/>
                </mxCell>
                <mxCell id="14" value="" style="endArrow=none;html=1;exitX=0;exitY=0.25;exitDx=0;exitDy=0;entryX=1;entryY=0.25;entryDx=0;entryDy=0;" parent="1" source="13" target="13" edge="1">
                    <mxGeometry width="50" height="50" relative="1" as="geometry">
                        <mxPoint x="570" y="250" as="sourcePoint"/>
                        <mxPoint x="620" y="200" as="targetPoint"/>
                    </mxGeometry>
                </mxCell>
                <mxCell id="15" value="Observer" style="text;html=1;align=center;verticalAlign=middle;resizable=0;points=[];autosize=1;strokeColor=none;fillColor=none;" parent="1" vertex="1">
                    <mxGeometry x="410" y="190" width="60" height="20" as="geometry"/>
                </mxCell>
                <mxCell id="16" value="" style="rounded=1;whiteSpace=wrap;html=1;" parent="1" vertex="1">
                    <mxGeometry x="360" y="180" width="180" height="220" as="geometry"/>
                </mxCell>
                <mxCell id="17" value="" style="endArrow=none;html=1;exitX=0;exitY=0.25;exitDx=0;exitDy=0;entryX=1;entryY=0.25;entryDx=0;entryDy=0;" parent="1" source="16" target="16" edge="1">
                    <mxGeometry width="50" height="50" relative="1" as="geometry">
                        <mxPoint x="580" y="260" as="sourcePoint"/>
                        <mxPoint x="630" y="210" as="targetPoint"/>
                    </mxGeometry>
                </mxCell>
                <mxCell id="18" value="Observer" style="text;html=1;align=center;verticalAlign=middle;resizable=0;points=[];autosize=1;strokeColor=none;fillColor=none;" parent="1" vertex="1">
                    <mxGeometry x="420" y="200" width="60" height="20" as="geometry"/>
                </mxCell>
                <mxCell id="19" value="update()" style="text;html=1;align=center;verticalAlign=middle;resizable=0;points=[];autosize=1;strokeColor=none;fillColor=none;" parent="1" vertex="1">
                    <mxGeometry x="420" y="280" width="60" height="20" as="geometry"/>
                </mxCell>
                <mxCell id="20" value="add: ob" style="text;html=1;align=center;verticalAlign=middle;resizable=0;points=[];autosize=1;strokeColor=none;fillColor=none;" parent="1" vertex="1">
                    <mxGeometry x="150" y="240" width="60" height="20" as="geometry"/>
                </mxCell>
                <mxCell id="21" value="remove: ob" style="text;html=1;align=center;verticalAlign=middle;resizable=0;points=[];autosize=1;strokeColor=none;fillColor=none;" parent="1" vertex="1">
                    <mxGeometry x="140" y="280" width="80" height="20" as="geometry"/>
                </mxCell>
                <mxCell id="22" value="notify()" style="text;html=1;align=center;verticalAlign=middle;resizable=0;points=[];autosize=1;strokeColor=none;fillColor=none;" parent="1" vertex="1">
                    <mxGeometry x="155" y="320" width="50" height="20" as="geometry"/>
                </mxCell>
                <mxCell id="28" style="edgeStyle=none;html=1;exitX=0.5;exitY=0;exitDx=0;exitDy=0;entryX=0.5;entryY=1;entryDx=0;entryDy=0;" parent="1" source="25" target="5" edge="1">
                    <mxGeometry relative="1" as="geometry"/>
                </mxCell>
                <mxCell id="25" value="concreteSubject" style="rounded=1;whiteSpace=wrap;html=1;" parent="1" vertex="1">
                    <mxGeometry x="90" y="430" width="180" height="30" as="geometry"/>
                </mxCell>
                <mxCell id="27" style="edgeStyle=none;html=1;exitX=0.5;exitY=0;exitDx=0;exitDy=0;entryX=0.445;entryY=1.015;entryDx=0;entryDy=0;entryPerimeter=0;" parent="1" source="26" target="16" edge="1">
                    <mxGeometry relative="1" as="geometry"/>
                </mxCell>
                <mxCell id="26" value="concreteObserver" style="rounded=1;whiteSpace=wrap;html=1;" parent="1" vertex="1">
                    <mxGeometry x="350" y="430" width="180" height="30" as="geometry"/>
                </mxCell>
                <mxCell id="29" value="src" style="rounded=0;whiteSpace=wrap;html=1;" parent="1" vertex="1">
                    <mxGeometry x="30" y="745" width="80" height="30" as="geometry"/>
                </mxCell>
                <mxCell id="44" style="edgeStyle=none;html=1;exitX=1;exitY=0.5;exitDx=0;exitDy=0;entryX=0;entryY=0.5;entryDx=0;entryDy=0;elbow=vertical;" edge="1" parent="1" source="30" target="31">
                    <mxGeometry relative="1" as="geometry"/>
                </mxCell>
                <mxCell id="30" value="compiler: 编译相关（运行时编译、离线编译）" style="rounded=1;whiteSpace=wrap;html=1;" parent="1" vertex="1">
                    <mxGeometry x="155" y="540" width="285" height="40" as="geometry"/>
                </mxCell>
                <mxCell id="31" value="包含编译相关的功能模块&lt;br&gt;1.模板解析成AST语法树&lt;br&gt;2.语法树的优化&lt;br&gt;3.template转化成render function，优化节流" style="rounded=1;whiteSpace=wrap;html=1;align=center;horizontal=1;" parent="1" vertex="1">
                    <mxGeometry x="490" y="530" width="340" height="60" as="geometry"/>
                </mxCell>
                <mxCell id="45" style="edgeStyle=none;html=1;exitX=1;exitY=0.5;exitDx=0;exitDy=0;entryX=0;entryY=0.5;entryDx=0;entryDy=0;elbow=vertical;" edge="1" parent="1" source="32" target="33">
                    <mxGeometry relative="1" as="geometry"/>
                </mxCell>
                <mxCell id="32" value="core: vue核心代码" style="rounded=1;whiteSpace=wrap;html=1;" parent="1" vertex="1">
                    <mxGeometry x="155" y="620" width="285" height="40" as="geometry"/>
                </mxCell>
                <mxCell id="33" value="1.内置组件&amp;nbsp; &amp;nbsp;2.全局的api封装&lt;br&gt;3.vue的实例化&amp;nbsp; &amp;nbsp;4.观察者模式&lt;br&gt;5.虚拟dom&amp;nbsp; &amp;nbsp;6.各种函数..." style="rounded=1;whiteSpace=wrap;html=1;" parent="1" vertex="1">
                    <mxGeometry x="490" y="610" width="340" height="60" as="geometry"/>
                </mxCell>
                <mxCell id="46" style="edgeStyle=none;html=1;exitX=1;exitY=0.5;exitDx=0;exitDy=0;entryX=0;entryY=0.5;entryDx=0;entryDy=0;elbow=vertical;" edge="1" parent="1" source="34" target="35">
                    <mxGeometry relative="1" as="geometry"/>
                </mxCell>
                <mxCell id="34" value="platforms: 跨平台的代码" style="rounded=1;whiteSpace=wrap;html=1;" parent="1" vertex="1">
                    <mxGeometry x="155" y="700" width="285" height="40" as="geometry"/>
                </mxCell>
                <mxCell id="35" value="1.web&lt;br&gt;2.weex（和阿里合作）&lt;br&gt;想在多平台上运行vue" style="rounded=1;whiteSpace=wrap;html=1;" parent="1" vertex="1">
                    <mxGeometry x="490" y="690" width="340" height="60" as="geometry"/>
                </mxCell>
                <mxCell id="47" style="edgeStyle=none;html=1;exitX=1;exitY=0.5;exitDx=0;exitDy=0;entryX=0;entryY=0.5;entryDx=0;entryDy=0;elbow=vertical;" edge="1" parent="1" source="36" target="37">
                    <mxGeometry relative="1" as="geometry"/>
                </mxCell>
                <mxCell id="36" value="server：服务端渲染" style="rounded=1;whiteSpace=wrap;html=1;" parent="1" vertex="1">
                    <mxGeometry x="155" y="780" width="285" height="40" as="geometry"/>
                </mxCell>
                <mxCell id="37" value="20年开始支持服务端渲染" style="rounded=1;whiteSpace=wrap;html=1;" parent="1" vertex="1">
                    <mxGeometry x="490" y="770" width="340" height="60" as="geometry"/>
                </mxCell>
                <mxCell id="48" style="edgeStyle=none;html=1;exitX=1;exitY=0.5;exitDx=0;exitDy=0;entryX=0;entryY=0.5;entryDx=0;entryDy=0;elbow=vertical;" edge="1" parent="1" source="38" target="39">
                    <mxGeometry relative="1" as="geometry"/>
                </mxCell>
                <mxCell id="38" value="sfc：.vue文件的解析器" style="rounded=1;whiteSpace=wrap;html=1;" parent="1" vertex="1">
                    <mxGeometry x="155" y="860" width="285" height="40" as="geometry"/>
                </mxCell>
                <mxCell id="39" value="解析 .vue文件 成一个简单的 js 对象" style="rounded=1;whiteSpace=wrap;html=1;" parent="1" vertex="1">
                    <mxGeometry x="490" y="850" width="340" height="60" as="geometry"/>
                </mxCell>
                <mxCell id="49" style="edgeStyle=none;html=1;exitX=1;exitY=0.5;exitDx=0;exitDy=0;entryX=0;entryY=0.5;entryDx=0;entryDy=0;elbow=vertical;" edge="1" parent="1" source="40" target="41">
                    <mxGeometry relative="1" as="geometry"/>
                </mxCell>
                <mxCell id="40" value="shared：共享工具方法" style="rounded=1;whiteSpace=wrap;html=1;" parent="1" vertex="1">
                    <mxGeometry x="155" y="940" width="285" height="40" as="geometry"/>
                </mxCell>
                <mxCell id="41" value="共享工具集合" style="rounded=1;whiteSpace=wrap;html=1;" parent="1" vertex="1">
                    <mxGeometry x="490" y="930" width="340" height="60" as="geometry"/>
                </mxCell>
                <mxCell id="69" style="edgeStyle=none;html=1;exitX=1;exitY=0.5;exitDx=0;exitDy=0;elbow=vertical;entryX=0;entryY=0.5;entryDx=0;entryDy=0;" edge="1" parent="1" source="52" target="56">
                    <mxGeometry relative="1" as="geometry">
                        <mxPoint x="310" y="1194.6666666666667" as="targetPoint"/>
                    </mxGeometry>
                </mxCell>
                <mxCell id="52" value="initMixin" style="rounded=1;whiteSpace=wrap;html=1;" vertex="1" parent="1">
                    <mxGeometry x="150" y="1177.5" width="135" height="30" as="geometry"/>
                </mxCell>
                <mxCell id="53" value="Vue" style="rounded=0;whiteSpace=wrap;html=1;" vertex="1" parent="1">
                    <mxGeometry x="10" y="2246.25" width="80" height="30" as="geometry"/>
                </mxCell>
                <mxCell id="56" value="_init" style="rounded=1;whiteSpace=wrap;html=1;" vertex="1" parent="1">
                    <mxGeometry x="350" y="1177.5" width="70" height="30" as="geometry"/>
                </mxCell>
                <mxCell id="57" value="mergeOptions&lt;br&gt;&lt;span style=&quot;text-align: left&quot;&gt;组件内外部配置合并：&lt;br&gt;接收外部配置，&lt;/span&gt;&lt;br style=&quot;text-align: left&quot;&gt;&lt;span style=&quot;text-align: left&quot;&gt;&#9;&lt;/span&gt;&lt;span style=&quot;text-align: left&quot;&gt;&#9;&lt;/span&gt;&lt;span style=&quot;text-align: left&quot;&gt;&#9;&lt;/span&gt;&lt;span style=&quot;text-align: left&quot;&gt;&#9;&lt;/span&gt;&lt;span style=&quot;text-align: left&quot;&gt;merge外部参数和内部参数&lt;/span&gt;" style="rounded=1;whiteSpace=wrap;html=1;" vertex="1" parent="1">
                    <mxGeometry x="480" y="1050" width="140" height="90" as="geometry"/>
                </mxCell>
                <mxCell id="58" value="init" style="rounded=1;whiteSpace=wrap;html=1;" vertex="1" parent="1">
                    <mxGeometry x="480" y="1270" width="140" height="30" as="geometry"/>
                </mxCell>
                <mxCell id="59" value="lifecycle" style="rounded=1;whiteSpace=wrap;html=1;" vertex="1" parent="1">
                    <mxGeometry x="687" y="1060" width="140" height="30" as="geometry"/>
                </mxCell>
                <mxCell id="73" value="" style="edgeStyle=none;html=1;elbow=vertical;" edge="1" parent="1" source="60" target="72">
                    <mxGeometry relative="1" as="geometry"/>
                </mxCell>
                <mxCell id="60" value="events" style="rounded=1;whiteSpace=wrap;html=1;" vertex="1" parent="1">
                    <mxGeometry x="687" y="1147.5" width="140" height="30" as="geometry"/>
                </mxCell>
                <mxCell id="80" style="edgeStyle=none;html=1;elbow=vertical;" edge="1" parent="1" source="61">
                    <mxGeometry relative="1" as="geometry">
                        <mxPoint x="980" y="1495.0000000000002" as="targetPoint"/>
                    </mxGeometry>
                </mxCell>
                <mxCell id="61" value="provide" style="rounded=1;whiteSpace=wrap;html=1;" vertex="1" parent="1">
                    <mxGeometry x="690" y="1480" width="140" height="30" as="geometry"/>
                </mxCell>
                <mxCell id="71" value="" style="edgeStyle=none;html=1;elbow=vertical;" edge="1" parent="1" source="63" target="70">
                    <mxGeometry relative="1" as="geometry"/>
                </mxCell>
                <mxCell id="63" value="render" style="rounded=1;whiteSpace=wrap;html=1;" vertex="1" parent="1">
                    <mxGeometry x="687" y="1230" width="140" height="30" as="geometry"/>
                </mxCell>
                <mxCell id="76" style="edgeStyle=none;html=1;elbow=vertical;" edge="1" parent="1" source="64">
                    <mxGeometry relative="1" as="geometry">
                        <mxPoint x="980" y="1335.0000000000002" as="targetPoint"/>
                    </mxGeometry>
                </mxCell>
                <mxCell id="64" value="inject" style="rounded=1;whiteSpace=wrap;html=1;" vertex="1" parent="1">
                    <mxGeometry x="687" y="1320" width="140" height="30" as="geometry"/>
                </mxCell>
                <mxCell id="78" style="edgeStyle=none;html=1;exitX=1;exitY=0.5;exitDx=0;exitDy=0;elbow=vertical;" edge="1" parent="1" source="65">
                    <mxGeometry relative="1" as="geometry">
                        <mxPoint x="980" y="1414.6666666666667" as="targetPoint"/>
                    </mxGeometry>
                </mxCell>
                <mxCell id="65" value="state" style="rounded=1;whiteSpace=wrap;html=1;" vertex="1" parent="1">
                    <mxGeometry x="687" y="1400" width="140" height="30" as="geometry"/>
                </mxCell>
                <mxCell id="67" value="" style="shape=curlyBracket;whiteSpace=wrap;html=1;rounded=1;" vertex="1" parent="1">
                    <mxGeometry x="640" y="1080" width="20" height="420" as="geometry"/>
                </mxCell>
                <mxCell id="68" value="" style="shape=curlyBracket;whiteSpace=wrap;html=1;rounded=1;" vertex="1" parent="1">
                    <mxGeometry x="440" y="1100" width="20" height="185" as="geometry"/>
                </mxCell>
                <mxCell id="70" value="defineReactive(基于defineProperty的封装)&lt;br&gt;1.slot处理&lt;br&gt;2.createElement处理" style="whiteSpace=wrap;html=1;rounded=1;" vertex="1" parent="1">
                    <mxGeometry x="980" y="1215" width="240" height="60" as="geometry"/>
                </mxCell>
                <mxCell id="72" value="$emit等事件处理" style="whiteSpace=wrap;html=1;rounded=1;" vertex="1" parent="1">
                    <mxGeometry x="980" y="1147.5" width="240" height="32.5" as="geometry"/>
                </mxCell>
                <mxCell id="74" value="callHock -&amp;gt; beforeCreate" style="rounded=1;whiteSpace=wrap;html=1;" vertex="1" parent="1">
                    <mxGeometry x="840" y="1270" width="130" height="40" as="geometry"/>
                </mxCell>
                <mxCell id="75" value="callHock -&amp;gt; &lt;br&gt;created" style="rounded=1;whiteSpace=wrap;html=1;" vertex="1" parent="1">
                    <mxGeometry x="840" y="1520" width="130" height="40" as="geometry"/>
                </mxCell>
                <mxCell id="77" value="defineReactive(基于defineProperty的封装)&lt;br&gt;1.把所有属性注入响应式" style="whiteSpace=wrap;html=1;rounded=1;" vertex="1" parent="1">
                    <mxGeometry x="980" y="1305" width="240" height="60" as="geometry"/>
                </mxCell>
                <mxCell id="79" value="init&lt;br&gt;props、methods、data、computed、watch&lt;br&gt;initProps、initData中proxy:将vm._props.xxx 做一层代理使得可以用vm.xxx直接访问(data同理)" style="whiteSpace=wrap;html=1;rounded=1;" vertex="1" parent="1">
                    <mxGeometry x="980" y="1377.5" width="240" height="75" as="geometry"/>
                </mxCell>
                <mxCell id="81" value="挂载provide对象在vm上" style="whiteSpace=wrap;html=1;rounded=1;" vertex="1" parent="1">
                    <mxGeometry x="980" y="1465" width="240" height="60" as="geometry"/>
                </mxCell>
                <mxCell id="82" value="stateMixin" style="rounded=1;whiteSpace=wrap;html=1;" vertex="1" parent="1">
                    <mxGeometry x="150" y="1910" width="135" height="30" as="geometry"/>
                </mxCell>
                <mxCell id="83" value="$data" style="rounded=1;whiteSpace=wrap;html=1;" vertex="1" parent="1">
                    <mxGeometry x="360" y="1690" width="140" height="30" as="geometry"/>
                </mxCell>
                <mxCell id="84" value="" style="shape=curlyBracket;whiteSpace=wrap;html=1;rounded=1;" vertex="1" parent="1">
                    <mxGeometry x="310" y="1700" width="20" height="450" as="geometry"/>
                </mxCell>
                <mxCell id="86" value="$props" style="rounded=1;whiteSpace=wrap;html=1;" vertex="1" parent="1">
                    <mxGeometry x="360" y="1800" width="140" height="30" as="geometry"/>
                </mxCell>
                <mxCell id="87" value="$watch" style="rounded=1;whiteSpace=wrap;html=1;" vertex="1" parent="1">
                    <mxGeometry x="360" y="2130" width="140" height="30" as="geometry"/>
                </mxCell>
                <mxCell id="88" value="$set" style="rounded=1;whiteSpace=wrap;html=1;" vertex="1" parent="1">
                    <mxGeometry x="360" y="1910" width="140" height="30" as="geometry"/>
                </mxCell>
                <mxCell id="89" value="$delete" style="rounded=1;whiteSpace=wrap;html=1;" vertex="1" parent="1">
                    <mxGeometry x="360" y="2020" width="140" height="30" as="geometry"/>
                </mxCell>
                <mxCell id="91" value="" style="shape=curlyBracket;whiteSpace=wrap;html=1;rounded=1;" vertex="1" parent="1">
                    <mxGeometry x="520" y="2100" width="20" height="95" as="geometry"/>
                </mxCell>
                <mxCell id="92" value="watcher" style="rounded=1;whiteSpace=wrap;html=1;" vertex="1" parent="1">
                    <mxGeometry x="570" y="2080" width="140" height="30" as="geometry"/>
                </mxCell>
                <mxCell id="93" value="依赖收集" style="rounded=1;whiteSpace=wrap;html=1;" vertex="1" parent="1">
                    <mxGeometry x="570" y="2180" width="140" height="30" as="geometry"/>
                </mxCell>
                <mxCell id="94" value="eventsMixin" style="rounded=1;whiteSpace=wrap;html=1;" vertex="1" parent="1">
                    <mxGeometry x="150" y="2525" width="135" height="30" as="geometry"/>
                </mxCell>
                <mxCell id="95" value="$on" style="rounded=1;whiteSpace=wrap;html=1;" vertex="1" parent="1">
                    <mxGeometry x="360" y="2360" width="140" height="30" as="geometry"/>
                </mxCell>
                <mxCell id="96" value="" style="shape=curlyBracket;whiteSpace=wrap;html=1;rounded=1;" vertex="1" parent="1">
                    <mxGeometry x="310" y="2370" width="20" height="340" as="geometry"/>
                </mxCell>
                <mxCell id="97" value="$once" style="rounded=1;whiteSpace=wrap;html=1;" vertex="1" parent="1">
                    <mxGeometry x="360" y="2470" width="140" height="30" as="geometry"/>
                </mxCell>
                <mxCell id="99" value="$off" style="rounded=1;whiteSpace=wrap;html=1;" vertex="1" parent="1">
                    <mxGeometry x="360" y="2580" width="140" height="30" as="geometry"/>
                </mxCell>
                <mxCell id="100" value="$emit" style="rounded=1;whiteSpace=wrap;html=1;" vertex="1" parent="1">
                    <mxGeometry x="360" y="2690" width="140" height="30" as="geometry"/>
                </mxCell>
                <mxCell id="104" value="lifecycleMixin" style="rounded=1;whiteSpace=wrap;html=1;" vertex="1" parent="1">
                    <mxGeometry x="150" y="3000" width="135" height="30" as="geometry"/>
                </mxCell>
                <mxCell id="105" value="_update" style="rounded=1;whiteSpace=wrap;html=1;" vertex="1" parent="1">
                    <mxGeometry x="360" y="2890" width="140" height="30" as="geometry"/>
                </mxCell>
                <mxCell id="106" value="" style="shape=curlyBracket;whiteSpace=wrap;html=1;rounded=1;" vertex="1" parent="1">
                    <mxGeometry x="310" y="2900" width="20" height="230" as="geometry"/>
                </mxCell>
                <mxCell id="107" value="$forceUpdate" style="rounded=1;whiteSpace=wrap;html=1;" vertex="1" parent="1">
                    <mxGeometry x="360" y="3000" width="140" height="30" as="geometry"/>
                </mxCell>
                <mxCell id="108" value="$destroy" style="rounded=1;whiteSpace=wrap;html=1;" vertex="1" parent="1">
                    <mxGeometry x="360" y="3110" width="140" height="30" as="geometry"/>
                </mxCell>
                <mxCell id="110" value="renderMixin" style="rounded=1;whiteSpace=wrap;html=1;" vertex="1" parent="1">
                    <mxGeometry x="150" y="3320" width="135" height="30" as="geometry"/>
                </mxCell>
                <mxCell id="111" value="$nextTick" style="rounded=1;whiteSpace=wrap;html=1;" vertex="1" parent="1">
                    <mxGeometry x="360" y="3270" width="140" height="30" as="geometry"/>
                </mxCell>
                <mxCell id="112" value="" style="shape=curlyBracket;whiteSpace=wrap;html=1;rounded=1;" vertex="1" parent="1">
                    <mxGeometry x="310" y="3280" width="20" height="110" as="geometry"/>
                </mxCell>
                <mxCell id="113" value="_render" style="rounded=1;whiteSpace=wrap;html=1;" vertex="1" parent="1">
                    <mxGeometry x="360" y="3380" width="140" height="30" as="geometry"/>
                </mxCell>
                <mxCell id="115" value="" style="shape=curlyBracket;whiteSpace=wrap;html=1;rounded=1;" vertex="1" parent="1">
                    <mxGeometry x="120" y="560" width="20" height="400" as="geometry"/>
                </mxCell>
                <mxCell id="117" value="" style="shape=curlyBracket;whiteSpace=wrap;html=1;rounded=1;" vertex="1" parent="1">
                    <mxGeometry x="120" y="1192.5" width="20" height="2137.5" as="geometry"/>
                </mxCell>
                <mxCell id="118" value="数据更新" style="rounded=1;whiteSpace=wrap;html=1;" vertex="1" parent="1">
                    <mxGeometry x="10" y="3690" width="80" height="40" as="geometry"/>
                </mxCell>
                <mxCell id="159" style="edgeStyle=none;html=1;exitX=1;exitY=0.5;exitDx=0;exitDy=0;entryX=0.003;entryY=0.356;entryDx=0;entryDy=0;entryPerimeter=0;elbow=vertical;" edge="1" parent="1" source="119" target="136">
                    <mxGeometry relative="1" as="geometry"/>
                </mxCell>
                <mxCell id="119" value="vm.$mount(vm.$options.el) 实例挂载" style="rounded=1;whiteSpace=wrap;html=1;" vertex="1" parent="1">
                    <mxGeometry x="210" y="3690" width="250" height="40" as="geometry"/>
                </mxCell>
                <mxCell id="132" value="" style="shape=curlyBracket;whiteSpace=wrap;html=1;rounded=1;" vertex="1" parent="1">
                    <mxGeometry x="1130" y="3840" width="20" height="220" as="geometry"/>
                </mxCell>
                <mxCell id="163" style="edgeStyle=none;html=1;exitX=0.5;exitY=1;exitDx=0;exitDy=0;entryX=0.5;entryY=0;entryDx=0;entryDy=0;elbow=vertical;" edge="1" parent="1" source="133" target="134">
                    <mxGeometry relative="1" as="geometry"/>
                </mxCell>
                <mxCell id="133" value="call beforeMount" style="rounded=1;whiteSpace=wrap;html=1;" vertex="1" parent="1">
                    <mxGeometry x="1190" y="3820" width="250" height="40" as="geometry"/>
                </mxCell>
                <mxCell id="143" style="edgeStyle=none;html=1;exitX=1;exitY=0.5;exitDx=0;exitDy=0;entryX=0;entryY=0.5;entryDx=0;entryDy=0;elbow=vertical;" edge="1" parent="1" source="134" target="138">
                    <mxGeometry relative="1" as="geometry"/>
                </mxCell>
                <mxCell id="164" style="edgeStyle=none;html=1;exitX=0.5;exitY=1;exitDx=0;exitDy=0;entryX=0.5;entryY=0;entryDx=0;entryDy=0;elbow=vertical;" edge="1" parent="1" source="134" target="135">
                    <mxGeometry relative="1" as="geometry"/>
                </mxCell>
                <mxCell id="228" style="edgeStyle=none;html=1;exitX=0;exitY=1;exitDx=0;exitDy=0;elbow=vertical;entryX=1;entryY=0;entryDx=0;entryDy=0;" edge="1" parent="1" source="134" target="222">
                    <mxGeometry relative="1" as="geometry">
                        <mxPoint x="1010" y="4540" as="targetPoint"/>
                    </mxGeometry>
                </mxCell>
                <mxCell id="134" value="new Watcher" style="rounded=1;whiteSpace=wrap;html=1;" vertex="1" parent="1">
                    <mxGeometry x="1190" y="3930" width="250" height="40" as="geometry"/>
                </mxCell>
                <mxCell id="135" value="call mounted" style="rounded=1;whiteSpace=wrap;html=1;" vertex="1" parent="1">
                    <mxGeometry x="1190" y="4040" width="250" height="40" as="geometry"/>
                </mxCell>
                <mxCell id="137" value="" style="group" vertex="1" connectable="0" parent="1">
                    <mxGeometry x="490" y="3507" width="630" height="573" as="geometry"/>
                </mxCell>
                <mxCell id="136" value="" style="whiteSpace=wrap;html=1;" vertex="1" parent="137">
                    <mxGeometry width="630" height="573" as="geometry"/>
                </mxCell>
                <mxCell id="158" style="edgeStyle=none;html=1;exitX=0.5;exitY=1;exitDx=0;exitDy=0;elbow=vertical;" edge="1" parent="137" source="120" target="121">
                    <mxGeometry relative="1" as="geometry"/>
                </mxCell>
                <mxCell id="120" value="根节点校验" style="rounded=1;whiteSpace=wrap;html=1;" vertex="1" parent="137">
                    <mxGeometry x="265" y="23" width="140" height="40" as="geometry"/>
                </mxCell>
                <mxCell id="121" value="是否存在 render()" style="rhombus;whiteSpace=wrap;html=1;" vertex="1" parent="137">
                    <mxGeometry x="250" y="113" width="170" height="80" as="geometry"/>
                </mxCell>
                <mxCell id="162" style="edgeStyle=none;html=1;exitX=1;exitY=0.5;exitDx=0;exitDy=0;entryX=0;entryY=0.5;entryDx=0;entryDy=0;elbow=vertical;" edge="1" parent="137" source="122" target="125">
                    <mxGeometry relative="1" as="geometry"/>
                </mxCell>
                <mxCell id="122" value="el、template 转化为 render() --&amp;gt; compileToFunction" style="rounded=1;whiteSpace=wrap;html=1;" vertex="1" parent="137">
                    <mxGeometry x="60" y="313" width="250" height="40" as="geometry"/>
                </mxCell>
                <mxCell id="123" style="edgeStyle=none;html=1;exitX=0.5;exitY=1;exitDx=0;exitDy=0;elbow=vertical;entryX=0.5;entryY=0;entryDx=0;entryDy=0;" edge="1" parent="137" source="121" target="122">
                    <mxGeometry relative="1" as="geometry">
                        <mxPoint x="180" y="293" as="targetPoint"/>
                        <Array as="points">
                            <mxPoint x="335" y="263"/>
                            <mxPoint x="185" y="263"/>
                        </Array>
                    </mxGeometry>
                </mxCell>
                <mxCell id="124" value="不存在" style="text;html=1;align=center;verticalAlign=middle;resizable=0;points=[];autosize=1;strokeColor=none;fillColor=none;" vertex="1" parent="137">
                    <mxGeometry x="230" y="243" width="50" height="20" as="geometry"/>
                </mxCell>
                <mxCell id="130" style="edgeStyle=none;html=1;exitX=0.5;exitY=1;exitDx=0;exitDy=0;elbow=vertical;" edge="1" parent="137" source="125">
                    <mxGeometry relative="1" as="geometry">
                        <mxPoint x="485.25" y="423" as="targetPoint"/>
                    </mxGeometry>
                </mxCell>
                <mxCell id="125" value="调用 $mount 挂载" style="rounded=1;whiteSpace=wrap;html=1;" vertex="1" parent="137">
                    <mxGeometry x="360" y="313" width="250" height="40" as="geometry"/>
                </mxCell>
                <mxCell id="128" style="edgeStyle=none;html=1;exitX=0.5;exitY=1;exitDx=0;exitDy=0;elbow=vertical;entryX=0.5;entryY=0;entryDx=0;entryDy=0;" edge="1" parent="137" source="121" target="125">
                    <mxGeometry relative="1" as="geometry">
                        <mxPoint x="440" y="273" as="targetPoint"/>
                        <Array as="points">
                            <mxPoint x="335" y="263"/>
                            <mxPoint x="485" y="263"/>
                        </Array>
                    </mxGeometry>
                </mxCell>
                <mxCell id="129" value="存在" style="text;html=1;align=center;verticalAlign=middle;resizable=0;points=[];autosize=1;strokeColor=none;fillColor=none;" vertex="1" parent="137">
                    <mxGeometry x="390" y="243" width="40" height="20" as="geometry"/>
                </mxCell>
                <mxCell id="131" value="mountComponent" style="rounded=1;whiteSpace=wrap;html=1;" vertex="1" parent="137">
                    <mxGeometry x="360" y="423" width="250" height="40" as="geometry"/>
                </mxCell>
                <mxCell id="171" style="edgeStyle=none;html=1;exitX=1;exitY=0.5;exitDx=0;exitDy=0;entryX=0.1;entryY=0.5;entryDx=0;entryDy=0;entryPerimeter=0;elbow=vertical;" edge="1" parent="1" source="138" target="139">
                    <mxGeometry relative="1" as="geometry"/>
                </mxCell>
                <mxCell id="138" value="updateComponent" style="rounded=1;whiteSpace=wrap;html=1;" vertex="1" parent="1">
                    <mxGeometry x="1490" y="3930" width="250" height="40" as="geometry"/>
                </mxCell>
                <mxCell id="139" value="" style="shape=curlyBracket;whiteSpace=wrap;html=1;rounded=1;" vertex="1" parent="1">
                    <mxGeometry x="1771" y="3766" width="20" height="370" as="geometry"/>
                </mxCell>
                <mxCell id="166" style="edgeStyle=none;html=1;exitX=1;exitY=0.5;exitDx=0;exitDy=0;entryX=0;entryY=0.5;entryDx=0;entryDy=0;elbow=vertical;" edge="1" parent="1" source="140" target="145">
                    <mxGeometry relative="1" as="geometry"/>
                </mxCell>
                <mxCell id="170" style="edgeStyle=none;html=1;exitX=0.5;exitY=1;exitDx=0;exitDy=0;entryX=0.5;entryY=0;entryDx=0;entryDy=0;elbow=vertical;" edge="1" parent="1" source="140" target="141">
                    <mxGeometry relative="1" as="geometry"/>
                </mxCell>
                <mxCell id="140" value="先：vm._render：生成 vdom" style="rounded=1;whiteSpace=wrap;html=1;" vertex="1" parent="1">
                    <mxGeometry x="1811" y="3738" width="250" height="40" as="geometry"/>
                </mxCell>
                <mxCell id="173" style="edgeStyle=none;html=1;exitX=1;exitY=0.5;exitDx=0;exitDy=0;entryX=0;entryY=0.5;entryDx=0;entryDy=0;elbow=vertical;" edge="1" parent="1" source="141" target="172">
                    <mxGeometry relative="1" as="geometry"/>
                </mxCell>
                <mxCell id="141" value="后：vm._update：更新生成dom" style="rounded=1;whiteSpace=wrap;html=1;" vertex="1" parent="1">
                    <mxGeometry x="1811" y="4118" width="250" height="40" as="geometry"/>
                </mxCell>
                <mxCell id="144" value="beforeUpdate" style="text;html=1;align=center;verticalAlign=middle;resizable=0;points=[];autosize=1;strokeColor=none;fillColor=none;" vertex="1" parent="1">
                    <mxGeometry x="1420" y="3980" width="90" height="20" as="geometry"/>
                </mxCell>
                <mxCell id="145" value="createElement" style="rounded=1;whiteSpace=wrap;html=1;" vertex="1" parent="1">
                    <mxGeometry x="2111" y="3738" width="250" height="40" as="geometry"/>
                </mxCell>
                <mxCell id="169" style="edgeStyle=none;html=1;exitX=0.5;exitY=1;exitDx=0;exitDy=0;entryX=0.5;entryY=0;entryDx=0;entryDy=0;elbow=vertical;" edge="1" parent="1" source="146" target="149">
                    <mxGeometry relative="1" as="geometry"/>
                </mxCell>
                <mxCell id="146" value="normalizeChildren" style="rounded=1;whiteSpace=wrap;html=1;" vertex="1" parent="1">
                    <mxGeometry x="2419" y="3686" width="250" height="40" as="geometry"/>
                </mxCell>
                <mxCell id="148" value="把 children 统一为 vnode 类型的数组" style="text;html=1;align=center;verticalAlign=middle;resizable=0;points=[];autosize=1;strokeColor=none;fillColor=none;" vertex="1" parent="1">
                    <mxGeometry x="2439" y="3656" width="210" height="20" as="geometry"/>
                </mxCell>
                <mxCell id="149" value="new vNode" style="rounded=1;whiteSpace=wrap;html=1;" vertex="1" parent="1">
                    <mxGeometry x="2419" y="3786" width="250" height="40" as="geometry"/>
                </mxCell>
                <mxCell id="150" value="" style="shape=curlyBracket;whiteSpace=wrap;html=1;rounded=1;" vertex="1" parent="1">
                    <mxGeometry x="2684" y="3756" width="20" height="100" as="geometry"/>
                </mxCell>
                <mxCell id="151" value="tag 为字符串类型" style="text;html=1;align=center;verticalAlign=middle;resizable=0;points=[];autosize=1;strokeColor=none;fillColor=none;" vertex="1" parent="1">
                    <mxGeometry x="2736" y="3746" width="110" height="20" as="geometry"/>
                </mxCell>
                <mxCell id="152" value="" style="shape=curlyBracket;whiteSpace=wrap;html=1;rounded=1;" vertex="1" parent="1">
                    <mxGeometry x="2850" y="3706" width="20" height="100" as="geometry"/>
                </mxCell>
                <mxCell id="153" value="内置节点：直接创建普通的 vnode" style="text;html=1;align=center;verticalAlign=middle;resizable=0;points=[];autosize=1;strokeColor=none;fillColor=none;" vertex="1" parent="1">
                    <mxGeometry x="2945" y="3696" width="200" height="20" as="geometry"/>
                </mxCell>
                <mxCell id="154" value="已经注册的组件名：创建组件类型的方式 createComponent" style="text;html=1;align=center;verticalAlign=middle;resizable=0;points=[];autosize=1;strokeColor=none;fillColor=none;" vertex="1" parent="1">
                    <mxGeometry x="2880" y="3746" width="330" height="20" as="geometry"/>
                </mxCell>
                <mxCell id="155" value="未知节点：创建了一个未知标签类型的节点" style="text;html=1;align=center;verticalAlign=middle;resizable=0;points=[];autosize=1;strokeColor=none;fillColor=none;" vertex="1" parent="1">
                    <mxGeometry x="2925" y="3796" width="240" height="20" as="geometry"/>
                </mxCell>
                <mxCell id="156" value="tag 为 component 类型" style="text;html=1;align=center;verticalAlign=middle;resizable=0;points=[];autosize=1;strokeColor=none;fillColor=none;" vertex="1" parent="1">
                    <mxGeometry x="2721" y="3848" width="140" height="20" as="geometry"/>
                </mxCell>
                <mxCell id="157" value="直接创建组件 createComponent" style="text;html=1;align=center;verticalAlign=middle;resizable=0;points=[];autosize=1;strokeColor=none;fillColor=none;" vertex="1" parent="1">
                    <mxGeometry x="2870" y="3848" width="190" height="20" as="geometry"/>
                </mxCell>
                <mxCell id="167" value="生成实例节点" style="text;html=1;align=center;verticalAlign=middle;resizable=0;points=[];autosize=1;strokeColor=none;fillColor=none;" vertex="1" parent="1">
                    <mxGeometry x="2191" y="3708" width="90" height="20" as="geometry"/>
                </mxCell>
                <mxCell id="168" value="" style="shape=curlyBracket;whiteSpace=wrap;html=1;rounded=1;" vertex="1" parent="1">
                    <mxGeometry x="2381" y="3708" width="20" height="100" as="geometry"/>
                </mxCell>
                <mxCell id="175" style="edgeStyle=none;html=1;exitX=1;exitY=0.5;exitDx=0;exitDy=0;entryX=0;entryY=0.5;entryDx=0;entryDy=0;elbow=vertical;" edge="1" parent="1" source="172" target="174">
                    <mxGeometry relative="1" as="geometry"/>
                </mxCell>
                <mxCell id="172" value="vm.__patch__" style="rounded=1;whiteSpace=wrap;html=1;" vertex="1" parent="1">
                    <mxGeometry x="2111" y="4118" width="250" height="40" as="geometry"/>
                </mxCell>
                <mxCell id="193" style="edgeStyle=none;html=1;exitX=1;exitY=0.5;exitDx=0;exitDy=0;entryX=0.001;entryY=0.531;entryDx=0;entryDy=0;entryPerimeter=0;elbow=vertical;" edge="1" parent="1" source="174" target="186">
                    <mxGeometry relative="1" as="geometry"/>
                </mxCell>
                <mxCell id="174" value="createPatchFunction" style="rounded=1;whiteSpace=wrap;html=1;" vertex="1" parent="1">
                    <mxGeometry x="2401" y="4118" width="250" height="40" as="geometry"/>
                </mxCell>
                <mxCell id="188" value="" style="group" vertex="1" connectable="0" parent="1">
                    <mxGeometry x="2695" y="3930" width="400" height="393" as="geometry"/>
                </mxCell>
                <mxCell id="186" value="" style="rounded=1;whiteSpace=wrap;html=1;" vertex="1" parent="188">
                    <mxGeometry width="400" height="393" as="geometry"/>
                </mxCell>
                <mxCell id="176" value="patchVnode" style="rounded=1;whiteSpace=wrap;html=1;" vertex="1" parent="188">
                    <mxGeometry x="61" y="53" width="250" height="40" as="geometry"/>
                </mxCell>
                <mxCell id="177" value="createElm" style="rounded=1;whiteSpace=wrap;html=1;" vertex="1" parent="188">
                    <mxGeometry x="61" y="143" width="250" height="40" as="geometry"/>
                </mxCell>
                <mxCell id="185" style="edgeStyle=none;html=1;exitX=0.5;exitY=1;exitDx=0;exitDy=0;entryX=0.5;entryY=0;entryDx=0;entryDy=0;elbow=vertical;" edge="1" parent="188" source="176" target="177">
                    <mxGeometry relative="1" as="geometry"/>
                </mxCell>
                <mxCell id="178" value="native createElement&lt;br&gt;生成实际DOM" style="rounded=1;whiteSpace=wrap;html=1;" vertex="1" parent="188">
                    <mxGeometry x="61" y="233" width="250" height="40" as="geometry"/>
                </mxCell>
                <mxCell id="183" style="edgeStyle=none;html=1;exitX=0.5;exitY=1;exitDx=0;exitDy=0;entryX=0.5;entryY=0;entryDx=0;entryDy=0;elbow=vertical;" edge="1" parent="188" source="177" target="178">
                    <mxGeometry relative="1" as="geometry"/>
                </mxCell>
                <mxCell id="179" value="createChildren&lt;br&gt;遍历子节点" style="rounded=1;whiteSpace=wrap;html=1;" vertex="1" parent="188">
                    <mxGeometry x="61" y="323" width="250" height="40" as="geometry"/>
                </mxCell>
                <mxCell id="180" value="" style="shape=curlyBracket;whiteSpace=wrap;html=1;rounded=1;" vertex="1" parent="188">
                    <mxGeometry x="15" y="73" width="20" height="270" as="geometry"/>
                </mxCell>
                <mxCell id="184" style="edgeStyle=none;html=1;exitX=0.5;exitY=1;exitDx=0;exitDy=0;entryX=0.5;entryY=0;entryDx=0;entryDy=0;elbow=vertical;" edge="1" parent="188" source="178" target="179">
                    <mxGeometry relative="1" as="geometry"/>
                </mxCell>
                <mxCell id="182" value="" style="curved=1;endArrow=classic;html=1;elbow=vertical;entryX=1;entryY=0.5;entryDx=0;entryDy=0;exitX=1;exitY=0.5;exitDx=0;exitDy=0;" edge="1" parent="188" source="179" target="177">
                    <mxGeometry width="50" height="50" relative="1" as="geometry">
                        <mxPoint x="415" y="320" as="sourcePoint"/>
                        <mxPoint x="515" y="160" as="targetPoint"/>
                        <Array as="points">
                            <mxPoint x="385" y="300"/>
                            <mxPoint x="385" y="200"/>
                        </Array>
                    </mxGeometry>
                </mxCell>
                <mxCell id="187" value="把虚拟节点树&amp;nbsp; 生成&amp;nbsp; 真实的dom树 的 过程" style="text;html=1;align=center;verticalAlign=middle;resizable=0;points=[];autosize=1;strokeColor=none;fillColor=none;" vertex="1" parent="188">
                    <mxGeometry x="52" y="11" width="240" height="20" as="geometry"/>
                </mxCell>
                <mxCell id="189" value="invokeCreateHooks" style="rounded=1;whiteSpace=wrap;html=1;" vertex="1" parent="1">
                    <mxGeometry x="3140" y="4117" width="250" height="40" as="geometry"/>
                </mxCell>
                <mxCell id="190" value="触发 nextTick 回调&amp;nbsp; 执行数组内的事件" style="text;html=1;align=center;verticalAlign=middle;resizable=0;points=[];autosize=1;strokeColor=none;fillColor=none;" vertex="1" parent="1">
                    <mxGeometry x="3155" y="4081" width="220" height="20" as="geometry"/>
                </mxCell>
                <mxCell id="194" style="edgeStyle=none;html=1;exitX=1;exitY=0.5;exitDx=0;exitDy=0;entryX=0;entryY=0.25;entryDx=0;entryDy=0;elbow=vertical;" edge="1" parent="1" source="186" target="189">
                    <mxGeometry relative="1" as="geometry"/>
                </mxCell>
                <mxCell id="195" value="回调放数组里面，render 生成实际 dom 之后执行回调" style="text;html=1;align=center;verticalAlign=middle;resizable=0;points=[];autosize=1;strokeColor=none;fillColor=none;" vertex="1" parent="1">
                    <mxGeometry x="290" y="3240" width="300" height="20" as="geometry"/>
                </mxCell>
                <mxCell id="196" value="组件化" style="rounded=1;whiteSpace=wrap;html=1;" vertex="1" parent="1">
                    <mxGeometry x="20" y="4560" width="80" height="40" as="geometry"/>
                </mxCell>
                <mxCell id="201" style="edgeStyle=none;html=1;exitX=1;exitY=0.5;exitDx=0;exitDy=0;entryX=0;entryY=0.5;entryDx=0;entryDy=0;elbow=vertical;" edge="1" parent="1" source="197" target="200">
                    <mxGeometry relative="1" as="geometry"/>
                </mxCell>
                <mxCell id="197" value="组件渲染" style="rounded=1;whiteSpace=wrap;html=1;" vertex="1" parent="1">
                    <mxGeometry x="160" y="4490" width="80" height="40" as="geometry"/>
                </mxCell>
                <mxCell id="198" value="组件配置" style="rounded=1;whiteSpace=wrap;html=1;" vertex="1" parent="1">
                    <mxGeometry x="160" y="4620" width="80" height="40" as="geometry"/>
                </mxCell>
                <mxCell id="199" value="" style="shape=curlyBracket;whiteSpace=wrap;html=1;rounded=1;" vertex="1" parent="1">
                    <mxGeometry x="120" y="4510" width="20" height="130" as="geometry"/>
                </mxCell>
                <mxCell id="202" style="edgeStyle=none;html=1;exitX=1;exitY=0.5;exitDx=0;exitDy=0;entryX=0.5;entryY=1;entryDx=0;entryDy=0;elbow=vertical;" edge="1" parent="1" source="200" target="149">
                    <mxGeometry relative="1" as="geometry">
                        <Array as="points">
                            <mxPoint x="3640" y="4510"/>
                            <mxPoint x="3640" y="3900"/>
                            <mxPoint x="2544" y="3900"/>
                        </Array>
                    </mxGeometry>
                </mxCell>
                <mxCell id="200" value="createComponent" style="rounded=1;whiteSpace=wrap;html=1;" vertex="1" parent="1">
                    <mxGeometry x="320" y="4490" width="140" height="40" as="geometry"/>
                </mxCell>
                <mxCell id="203" value="生成 vNode" style="text;html=1;align=center;verticalAlign=middle;resizable=0;points=[];autosize=1;strokeColor=none;fillColor=none;" vertex="1" parent="1">
                    <mxGeometry x="540" y="4480" width="80" height="20" as="geometry"/>
                </mxCell>
                <mxCell id="204" value="initInternalComponent" style="rounded=1;whiteSpace=wrap;html=1;" vertex="1" parent="1">
                    <mxGeometry x="320" y="4590" width="140" height="40" as="geometry"/>
                </mxCell>
                <mxCell id="205" value="/src/core/util/options.js" style="rounded=1;whiteSpace=wrap;html=1;" vertex="1" parent="1">
                    <mxGeometry x="320" y="4670" width="140" height="40" as="geometry"/>
                </mxCell>
                <mxCell id="206" value="" style="shape=curlyBracket;whiteSpace=wrap;html=1;rounded=1;" vertex="1" parent="1">
                    <mxGeometry x="501" y="4990" width="20" height="220" as="geometry"/>
                </mxCell>
                <mxCell id="207" value="组件内option合并" style="text;html=1;align=center;verticalAlign=middle;resizable=0;points=[];autosize=1;strokeColor=none;fillColor=none;" vertex="1" parent="1">
                    <mxGeometry x="335" y="4565" width="110" height="20" as="geometry"/>
                </mxCell>
                <mxCell id="208" value="响应式" style="rounded=1;whiteSpace=wrap;html=1;" vertex="1" parent="1">
                    <mxGeometry x="20" y="5020" width="80" height="40" as="geometry"/>
                </mxCell>
                <mxCell id="209" value="依赖收集" style="rounded=1;whiteSpace=wrap;html=1;" vertex="1" parent="1">
                    <mxGeometry x="160" y="4950" width="80" height="40" as="geometry"/>
                </mxCell>
                <mxCell id="244" style="edgeStyle=none;html=1;exitX=1;exitY=0.5;exitDx=0;exitDy=0;entryX=0;entryY=0.5;entryDx=0;entryDy=0;elbow=vertical;" edge="1" parent="1" source="210" target="243">
                    <mxGeometry relative="1" as="geometry"/>
                </mxCell>
                <mxCell id="210" value="派发更新" style="rounded=1;whiteSpace=wrap;html=1;" vertex="1" parent="1">
                    <mxGeometry x="160" y="5090" width="80" height="40" as="geometry"/>
                </mxCell>
                <mxCell id="211" value="initState" style="rounded=1;whiteSpace=wrap;html=1;" vertex="1" parent="1">
                    <mxGeometry x="336" y="4850" width="146" height="40" as="geometry"/>
                </mxCell>
                <mxCell id="241" style="edgeStyle=none;html=1;exitX=0.75;exitY=1;exitDx=0;exitDy=0;elbow=vertical;" edge="1" parent="1" source="212">
                    <mxGeometry relative="1" as="geometry">
                        <mxPoint x="730" y="5430" as="targetPoint"/>
                        <Array as="points">
                            <mxPoint x="445" y="5430"/>
                        </Array>
                    </mxGeometry>
                </mxCell>
                <mxCell id="212" value="defineReactive" style="rounded=1;whiteSpace=wrap;html=1;" vertex="1" parent="1">
                    <mxGeometry x="335" y="5060" width="146" height="40" as="geometry"/>
                </mxCell>
                <mxCell id="213" value="" style="shape=curlyBracket;whiteSpace=wrap;html=1;rounded=1;" vertex="1" parent="1">
                    <mxGeometry x="120" y="4985" width="20" height="110" as="geometry"/>
                </mxCell>
                <mxCell id="214" value="Dep" style="rounded=1;whiteSpace=wrap;html=1;" vertex="1" parent="1">
                    <mxGeometry x="545" y="4965" width="146" height="40" as="geometry"/>
                </mxCell>
                <mxCell id="215" value="observe =&amp;gt; new Observe" style="rounded=1;whiteSpace=wrap;html=1;" vertex="1" parent="1">
                    <mxGeometry x="545" y="5195" width="146" height="40" as="geometry"/>
                </mxCell>
                <mxCell id="217" value="" style="shape=curlyBracket;whiteSpace=wrap;html=1;rounded=1;" vertex="1" parent="1">
                    <mxGeometry x="280" y="4870" width="20" height="210" as="geometry"/>
                </mxCell>
                <mxCell id="218" value="" style="shape=curlyBracket;whiteSpace=wrap;html=1;rounded=1;" vertex="1" parent="1">
                    <mxGeometry x="711" y="5160" width="20" height="110" as="geometry"/>
                </mxCell>
                <mxCell id="219" value="new Dep" style="rounded=1;whiteSpace=wrap;html=1;" vertex="1" parent="1">
                    <mxGeometry x="755" y="5145" width="146" height="40" as="geometry"/>
                </mxCell>
                <mxCell id="220" value="def(obj,&amp;nbsp; __ob__, this)" style="rounded=1;whiteSpace=wrap;html=1;" vertex="1" parent="1">
                    <mxGeometry x="755" y="5245" width="146" height="40" as="geometry"/>
                </mxCell>
                <mxCell id="221" value="" style="shape=curlyBracket;whiteSpace=wrap;html=1;rounded=1;" vertex="1" parent="1">
                    <mxGeometry x="700" y="4930" width="20" height="110" as="geometry"/>
                </mxCell>
                <mxCell id="225" style="edgeStyle=none;html=1;exitX=1;exitY=0.5;exitDx=0;exitDy=0;entryX=0;entryY=0.5;entryDx=0;entryDy=0;elbow=vertical;" edge="1" parent="1" source="222" target="224">
                    <mxGeometry relative="1" as="geometry"/>
                </mxCell>
                <mxCell id="222" value="new&amp;nbsp; Watcher" style="rounded=1;whiteSpace=wrap;html=1;" vertex="1" parent="1">
                    <mxGeometry x="744" y="4915" width="146" height="40" as="geometry"/>
                </mxCell>
                <mxCell id="223" value="class Watcher" style="rounded=1;whiteSpace=wrap;html=1;" vertex="1" parent="1">
                    <mxGeometry x="744" y="5015" width="146" height="40" as="geometry"/>
                </mxCell>
                <mxCell id="233" style="edgeStyle=none;html=1;exitX=1;exitY=0.5;exitDx=0;exitDy=0;entryX=0;entryY=0.5;entryDx=0;entryDy=0;elbow=vertical;" edge="1" parent="1" source="224" target="231">
                    <mxGeometry relative="1" as="geometry"/>
                </mxCell>
                <mxCell id="224" value="pushTarget：把自身实例放入全局 target" style="rounded=1;whiteSpace=wrap;html=1;" vertex="1" parent="1">
                    <mxGeometry x="970" y="4915" width="290" height="40" as="geometry"/>
                </mxCell>
                <mxCell id="229" value="同一步操作" style="text;html=1;align=center;verticalAlign=middle;resizable=0;points=[];autosize=1;strokeColor=none;fillColor=none;" vertex="1" parent="1">
                    <mxGeometry x="860" y="4770" width="80" height="20" as="geometry"/>
                </mxCell>
                <mxCell id="230" value="同一步操作" style="text;html=1;align=center;verticalAlign=middle;resizable=0;points=[];autosize=1;strokeColor=none;fillColor=none;" vertex="1" parent="1">
                    <mxGeometry x="1030" y="4190" width="80" height="20" as="geometry"/>
                </mxCell>
                <mxCell id="234" style="edgeStyle=none;html=1;exitX=1;exitY=0.5;exitDx=0;exitDy=0;entryX=0;entryY=0.5;entryDx=0;entryDy=0;elbow=vertical;" edge="1" parent="1" source="231" target="232">
                    <mxGeometry relative="1" as="geometry"/>
                </mxCell>
                <mxCell id="231" value="depend =&amp;gt; addDep" style="rounded=1;whiteSpace=wrap;html=1;" vertex="1" parent="1">
                    <mxGeometry x="1330" y="4915" width="290" height="40" as="geometry"/>
                </mxCell>
                <mxCell id="249" style="edgeStyle=none;html=1;exitX=1;exitY=0.5;exitDx=0;exitDy=0;entryX=0;entryY=0.5;entryDx=0;entryDy=0;elbow=vertical;" edge="1" parent="1" source="232" target="235">
                    <mxGeometry relative="1" as="geometry"/>
                </mxCell>
                <mxCell id="232" value="把 this 挂载到 dep 的subs 列表中" style="rounded=1;whiteSpace=wrap;html=1;" vertex="1" parent="1">
                    <mxGeometry x="1690" y="4915" width="290" height="40" as="geometry"/>
                </mxCell>
                <mxCell id="240" style="edgeStyle=none;html=1;exitX=1;exitY=0.5;exitDx=0;exitDy=0;elbow=vertical;entryX=0.25;entryY=1;entryDx=0;entryDy=0;" edge="1" parent="1" source="235" target="212">
                    <mxGeometry relative="1" as="geometry">
                        <mxPoint x="390" y="5620" as="targetPoint"/>
                        <Array as="points">
                            <mxPoint x="2490" y="4935"/>
                            <mxPoint x="2480" y="5530"/>
                            <mxPoint x="372" y="5530"/>
                        </Array>
                    </mxGeometry>
                </mxCell>
                <mxCell id="235" value="children traverse&amp;nbsp; 递归当前节点下的每一个子节点" style="rounded=1;whiteSpace=wrap;html=1;" vertex="1" parent="1">
                    <mxGeometry x="2050" y="4915" width="290" height="40" as="geometry"/>
                </mxCell>
                <mxCell id="243" value="派发更新" style="rounded=1;whiteSpace=wrap;html=1;" vertex="1" parent="1">
                    <mxGeometry x="450" y="5280" width="80" height="40" as="geometry"/>
                </mxCell>
                <mxCell id="247" style="edgeStyle=none;html=1;exitX=1;exitY=0.5;exitDx=0;exitDy=0;entryX=0;entryY=0.5;entryDx=0;entryDy=0;elbow=vertical;" edge="1" parent="1" source="245" target="246">
                    <mxGeometry relative="1" as="geometry"/>
                </mxCell>
                <mxCell id="245" value="ntify()" style="rounded=1;whiteSpace=wrap;html=1;" vertex="1" parent="1">
                    <mxGeometry x="755" y="5410" width="146" height="40" as="geometry"/>
                </mxCell>
                <mxCell id="250" style="edgeStyle=none;html=1;exitX=1;exitY=0.5;exitDx=0;exitDy=0;elbow=vertical;entryX=0.5;entryY=1;entryDx=0;entryDy=0;" edge="1" parent="1" source="246" target="141">
                    <mxGeometry relative="1" as="geometry">
                        <mxPoint x="1960" y="4760" as="targetPoint"/>
                        <Array as="points">
                            <mxPoint x="2760" y="5430"/>
                            <mxPoint x="2760" y="4760"/>
                            <mxPoint x="1940" y="4760"/>
                        </Array>
                    </mxGeometry>
                </mxCell>
                <mxCell id="246" value="执行 subs 中每个 watcher 的 update" style="rounded=1;whiteSpace=wrap;html=1;" vertex="1" parent="1">
                    <mxGeometry x="1632" y="5410" width="406" height="40" as="geometry"/>
                </mxCell>
                <mxCell id="251" value="dom diff" style="text;html=1;align=center;verticalAlign=middle;resizable=0;points=[];autosize=1;strokeColor=none;fillColor=none;" vertex="1" parent="1">
                    <mxGeometry x="80" y="5720" width="60" height="20" as="geometry"/>
                </mxCell>
                <mxCell id="252" value="" style="shape=curlyBracket;whiteSpace=wrap;html=1;rounded=1;" vertex="1" parent="1">
                    <mxGeometry x="155" y="5670" width="20" height="120" as="geometry"/>
                </mxCell>
                <mxCell id="253" value="2.优先处理特殊场景" style="text;html=1;align=center;verticalAlign=middle;resizable=0;points=[];autosize=1;strokeColor=none;fillColor=none;" vertex="1" parent="1">
                    <mxGeometry x="180" y="5715" width="120" height="20" as="geometry"/>
                </mxCell>
                <mxCell id="254" value="1.先找到对应 el" style="text;html=1;align=center;verticalAlign=middle;resizable=0;points=[];autosize=1;strokeColor=none;fillColor=none;" vertex="1" parent="1">
                    <mxGeometry x="190" y="5665" width="100" height="20" as="geometry"/>
                </mxCell>
                <mxCell id="255" value="3.再考虑原地复用" style="text;html=1;align=center;verticalAlign=middle;resizable=0;points=[];autosize=1;strokeColor=none;fillColor=none;" vertex="1" parent="1">
                    <mxGeometry x="185" y="5775" width="110" height="20" as="geometry"/>
                </mxCell>
            </root>
        </mxGraphModel>
    </diagram>
</mxfile>